<?xml version="1.0" standalone="no"?>
<!DOCTYPE svg PUBLIC "-//W3C//DTD SVG 20010904//EN"
 "http://www.w3.org/TR/2001/REC-SVG-20010904/DTD/svg10.dtd">
<svg version="1.0" xmlns="http://www.w3.org/2000/svg"
 width="352.000000pt" height="157.000000pt" viewBox="0 0 352.000000 157.000000"
 preserveAspectRatio="xMidYMid meet">
<metadata>
Created by potrace 1.16, written by Peter Selinger 2001-2019
</metadata>
<g transform="translate(0.000000,157.000000) scale(0.100000,-0.100000)"
fill="#000000" stroke="none">
<path d="M420 1498 c0 -13 4 -29 9 -37 5 -8 7 -20 4 -28 -7 -18 -32 -17 -39 2
-9 21 -21 19 -27 -6 -10 -37 -32 -15 -35 34 -3 48 -16 58 -41 35 -11 -11 -12
-10 -6 0 5 10 2 13 -11 10 -22 -4 -31 -45 -15 -61 6 -6 11 -19 11 -28 0 -22
-42 -33 -53 -14 -11 21 -27 19 -27 -4 0 -10 -7 -21 -15 -25 -17 -6 -35 22 -35
56 0 42 -12 48 -52 29 -32 -14 -35 -19 -25 -36 6 -11 16 -24 23 -30 19 -15 57
-116 55 -147 -1 -16 3 -28 9 -28 18 0 33 -52 18 -61 -10 -6 -10 -11 -1 -20 52
-52 593 -50 593 2 0 6 -4 8 -10 4 -5 -3 -3 11 4 32 7 21 19 38 26 38 17 0 24
21 11 29 -11 7 38 124 69 164 23 28 20 34 -27 50 -32 10 -32 10 -39 -23 -3
-19 -3 -39 2 -46 4 -8 3 -10 -4 -5 -7 4 -12 2 -12 -3 0 -6 -9 -11 -20 -11 -15
0 -20 7 -20 25 0 27 -15 34 -24 10 -3 -8 -15 -15 -26 -15 -15 0 -20 7 -20 24
0 14 5 28 10 31 16 10 13 58 -4 52 -7 -3 -19 0 -25 6 -8 8 -11 7 -11 -3 0 -13
-2 -13 -10 0 -16 24 -30 -8 -23 -52 5 -34 3 -38 -15 -38 -12 0 -25 8 -31 17
-9 17 -10 17 -29 0 -27 -24 -35 -9 -26 48 4 30 3 45 -5 45 -6 0 -11 -6 -11
-12 0 -9 -4 -8 -10 2 -9 13 -11 13 -20 0 -6 -10 -10 -11 -10 -2 0 6 -7 12 -15
12 -9 0 -15 -9 -15 -22z"/>
<path d="M80 618 c1 -333 4 -447 13 -459 25 -33 55 -39 185 -39 120 0 130 -1
149 -23 12 -12 23 -31 25 -42 4 -18 6 -18 15 5 19 45 31 48 186 52 l149 3 24
28 24 28 -2 442 -3 442 -382 3 -383 2 0 -442z m750 298 l0 -124 -40 -16 c-61
-24 -65 -20 -21 26 37 40 59 83 47 95 -3 3 -17 -9 -31 -26 -15 -17 -32 -31
-37 -31 -6 0 -3 8 6 19 9 10 16 22 15 27 -1 5 1 21 5 35 4 15 6 40 4 55 -3 28
-4 27 -32 -24 -16 -28 -31 -51 -32 -49 -2 2 3 24 11 50 8 26 10 45 5 42 -6 -4
-10 -14 -10 -23 -1 -9 -7 -30 -15 -47 l-15 -30 5 37 c9 62 -17 124 -28 66 -4
-23 -4 -23 -15 2 -10 22 -11 20 -6 -20 l4 -45 -19 43 c-11 23 -24 42 -28 42
-4 0 -9 -30 -11 -67 -1 -37 -6 -69 -10 -72 -13 -9 -35 -98 -27 -110 3 -6 13
-11 21 -11 20 0 17 -18 -6 -32 -11 -7 -20 -18 -20 -25 0 -21 -15 -15 -38 17
-13 17 -18 30 -12 30 5 0 10 9 10 20 0 12 7 20 16 20 12 0 10 7 -11 31 -14 18
-24 37 -21 44 3 8 -9 15 -35 19 -51 8 -86 -1 -92 -25 -6 -22 -4 -24 46 -33 29
-5 37 -11 35 -24 -2 -9 -12 -17 -23 -18 -11 -1 -30 -4 -42 -8 -20 -6 -23 -4
-23 19 0 14 -7 42 -15 62 -8 19 -15 64 -15 99 0 35 -4 64 -10 64 -13 0 -30
-33 -32 -62 0 -13 -4 -3 -8 22 -4 29 -8 35 -8 18 -3 -39 -22 -46 -22 -8 0 50
-24 31 -30 -24 -3 -25 -9 -47 -15 -48 -5 0 -19 18 -30 40 -11 23 -23 41 -27
42 -16 1 -7 -59 16 -104 20 -40 21 -45 5 -30 -18 17 -27 8 -11 -12 4 -5 -5 3
-19 18 -14 15 -28 28 -32 28 -11 0 13 -54 35 -77 29 -31 19 -36 -20 -11 l-32
20 0 104 0 104 370 0 370 0 0 -124z m-85 -302 c21 -9 49 -14 62 -11 l23 4 0
-198 c0 -192 -7 -244 -33 -261 -7 -4 -69 -8 -139 -8 -70 0 -139 -5 -154 -10
-32 -13 -42 -6 -24 15 10 12 10 19 2 27 -7 7 -12 17 -12 22 0 6 7 0 16 -12 8
-12 23 -22 34 -22 16 0 17 3 7 30 -6 17 -20 33 -31 36 -14 5 -15 8 -6 14 10 6
9 13 -4 31 -9 13 -16 28 -16 33 0 11 35 -34 43 -56 3 -10 13 -18 20 -18 8 0
19 -10 25 -23 10 -22 11 -22 11 6 1 29 11 33 41 17 10 -6 21 -6 24 -2 8 13
-23 52 -40 52 -17 0 -18 12 -2 28 9 9 8 12 -5 12 -10 0 -20 7 -23 15 -9 23
-24 18 -24 -8 0 -13 -3 -26 -6 -30 -9 -8 -44 30 -54 61 -9 24 -9 25 4 9 8 -10
20 -15 30 -11 21 8 20 12 -5 32 -13 11 -22 33 -25 62 -4 34 -3 41 5 30 6 -8
11 -23 11 -32 0 -9 11 -29 25 -44 19 -20 25 -23 25 -10 0 24 13 20 46 -16 16
-17 24 -29 19 -25 -6 3 -19 -1 -30 -9 -17 -13 -16 -14 18 -14 33 0 39 -4 54
-35 9 -19 21 -35 26 -35 5 0 4 6 -2 14 -9 11 -9 15 1 19 10 4 10 8 -2 16 -19
13 -9 14 24 1 20 -7 26 -6 26 5 0 7 -10 17 -21 20 -15 5 -18 9 -9 15 9 6 9 9
1 15 -7 4 -19 1 -27 -6 -12 -10 -21 -6 -49 21 -19 19 -35 42 -35 51 0 10 -4
20 -9 24 -13 8 -61 95 -52 95 3 0 14 -12 23 -28 23 -39 58 -69 58 -51 0 11 2
11 10 -1 5 -8 13 -15 17 -15 4 -1 29 -23 56 -49 26 -27 50 -46 53 -43 4 3 -12
40 -35 81 -44 80 -48 91 -29 80 8 -5 9 -1 4 12 -3 10 5 4 20 -14 25 -31 71
-62 94 -62 6 0 -16 35 -49 77 -33 43 -57 81 -55 85 7 10 5 11 49 -8z m-348
-46 c-1 -18 -10 -44 -20 -58 -9 -13 -17 -30 -17 -37 0 -7 -9 -17 -20 -23 -11
-6 -20 -19 -20 -29 0 -9 -11 -28 -25 -41 -21 -20 -28 -22 -49 -12 -20 9 -27 8
-38 -5 -9 -12 -10 -15 0 -9 6 4 12 3 12 -2 0 -5 -9 -12 -20 -15 -11 -3 -20
-12 -20 -20 0 -17 33 -13 60 7 10 7 9 3 -2 -10 -20 -23 -24 -54 -8 -54 6 0 18
16 27 35 14 30 22 35 50 35 18 0 33 5 33 11 0 5 -4 8 -9 5 -5 -3 -11 1 -14 9
-4 8 5 23 20 35 l27 21 12 -29 c6 -16 22 -32 35 -36 l24 -6 -24 -19 c-13 -10
-21 -23 -17 -30 4 -6 2 -11 -3 -11 -6 0 -11 16 -11 35 0 38 -15 47 -25 15 -3
-11 -9 -19 -13 -19 -19 3 -23 -2 -13 -15 9 -11 7 -15 -13 -20 -14 -3 -28 -15
-31 -27 -8 -25 1 -37 17 -21 20 20 38 14 38 -13 l0 -26 30 23 c17 12 30 27 30
32 1 6 12 25 26 41 17 21 23 24 18 10 -4 -11 -13 -27 -21 -37 -13 -14 -12 -18
4 -27 17 -10 17 -10 -3 -11 -12 0 -24 -8 -28 -18 -3 -9 -9 -23 -12 -29 -8 -17
28 -17 46 0 12 10 12 9 1 -5 -10 -14 -9 -20 8 -37 30 -30 26 -49 -5 -20 -24
23 -33 24 -165 27 -183 5 -179 1 -179 188 l0 134 25 0 c16 0 43 16 72 43 l47
42 -24 -35 c-13 -19 -39 -53 -59 -75 -22 -25 -16 -21 14 10 28 27 61 64 73 80
l23 30 -22 -45 c-12 -25 -37 -67 -56 -93 -56 -79 -19 -74 55 7 23 25 46 46 50
47 4 0 13 10 20 22 13 21 11 9 -4 -28 -3 -8 -1 -15 4 -15 18 0 59 62 73 108
15 50 19 53 16 10z"/>
<path d="M1160 908 c-86 -44 -116 -137 -67 -208 33 -50 77 -72 145 -73 76 0
98 8 111 43 13 37 3 38 -25 3 -19 -25 -29 -28 -77 -28 -48 0 -60 4 -86 29 -53
51 -58 151 -10 202 47 50 151 48 174 -3 15 -34 28 -28 21 9 -3 17 -8 33 -11
36 -2 2 -32 6 -67 9 -52 4 -71 0 -108 -19z"/>
<path d="M1470 911 c-104 -55 -109 -215 -8 -267 75 -39 189 -10 223 56 20 40
19 125 -2 161 -37 62 -144 87 -213 50z m145 -28 c42 -43 56 -118 31 -178 -20
-48 -57 -69 -109 -62 -125 17 -144 234 -24 265 44 11 72 4 102 -25z"/>
<path d="M1769 909 c23 -9 24 -12 18 -92 -4 -45 -7 -97 -7 -114 0 -20 -8 -41
-20 -53 l-20 -20 53 1 c41 0 47 2 30 9 -22 9 -23 15 -23 104 0 52 3 97 8 99 4
3 30 -44 57 -104 28 -59 52 -108 55 -108 3 -1 30 47 60 105 30 58 58 108 63
111 4 2 7 -39 7 -91 0 -87 -2 -96 -22 -110 -21 -15 -20 -16 37 -16 53 0 57 1
39 14 -17 13 -19 29 -22 135 -4 119 -3 121 20 130 20 9 18 10 -17 10 l-40 0
-45 -96 c-66 -141 -60 -139 -113 -42 -25 46 -48 96 -52 112 -6 24 -12 27 -49
26 -36 0 -38 -1 -17 -10z"/>
<path d="M2168 913 c21 -4 22 -9 22 -91 0 -94 12 -153 35 -172 25 -21 87 -30
128 -19 57 15 77 55 77 154 0 95 6 122 29 128 9 3 -9 5 -39 5 -42 1 -50 -1
-32 -8 21 -9 22 -15 22 -102 0 -104 -11 -136 -53 -156 -22 -11 -35 -11 -63 -2
-49 16 -64 56 -64 165 0 79 2 86 23 95 16 6 5 9 -43 8 -36 0 -55 -3 -42 -5z"/>
<path d="M2508 910 c21 -9 22 -14 22 -135 0 -121 -1 -126 -22 -135 -18 -7 -9
-9 37 -9 49 0 56 2 39 11 -12 6 -25 23 -28 40 -9 43 -7 178 2 177 4 0 54 -54
112 -120 l105 -119 2 122 c3 144 7 165 31 171 9 3 -10 5 -43 5 -33 0 -51 -3
-40 -5 31 -8 35 -21 35 -121 l0 -92 -64 67 c-35 38 -79 87 -97 110 -30 37 -39
42 -74 42 -34 0 -37 -2 -17 -9z"/>
<path d="M2868 910 c21 -9 22 -14 22 -133 0 -119 -1 -124 -22 -135 -18 -8 2
-11 93 -11 113 -1 117 0 123 22 11 42 6 50 -15 23 -19 -24 -27 -27 -78 -24
l-56 3 -3 57 c-3 48 0 57 16 62 23 8 68 -8 75 -26 3 -7 5 10 6 37 0 40 -2 45
-9 28 -8 -19 -17 -23 -50 -23 l-40 0 0 60 0 60 43 0 c47 0 58 -6 75 -35 10
-18 11 -17 12 13 l0 32 -107 -1 c-75 0 -101 -3 -85 -9z"/>
<path d="M1661 515 c-10 -39 -7 -41 18 -16 14 14 34 21 61 21 l40 0 0 -126 c0
-117 -1 -126 -20 -131 -39 -10 -19 -20 40 -20 33 0 60 4 60 9 0 4 -9 8 -20 8
-19 0 -20 7 -20 130 l0 130 40 0 c27 0 45 -6 60 -22 l20 -22 0 35 0 34 -135 0
-136 0 -8 -30z"/>
<path d="M2876 525 c-11 -41 -7 -50 14 -27 15 16 33 22 60 22 l40 0 0 -130 c0
-123 -1 -130 -20 -130 -11 0 -20 -4 -20 -8 0 -5 27 -9 60 -9 59 0 79 10 40 20
-19 5 -20 14 -20 131 l0 126 44 0 c34 0 47 -5 59 -22 l16 -23 0 22 c1 12 3 27
6 35 4 10 -22 13 -134 13 -132 0 -140 -1 -145 -20z"/>
<path d="M1090 532 c-25 -8 -25 -8 -2 -14 21 -6 22 -10 22 -128 0 -113 -1
-122 -20 -127 -49 -13 -11 -22 83 -20 116 3 156 18 187 70 28 45 27 125 -1
161 -11 14 -35 34 -52 42 -34 18 -176 28 -217 16z m205 -42 c38 -36 51 -89 35
-146 -15 -54 -55 -84 -112 -84 -69 0 -68 -1 -68 137 l0 125 60 -4 c45 -3 66
-10 85 -28z"/>
<path d="M1975 529 c-3 -3 4 -9 15 -12 19 -5 20 -14 20 -127 0 -113 -1 -122
-20 -127 -38 -10 -20 -20 35 -20 30 0 55 4 55 8 0 5 -7 9 -15 9 -12 0 -15 13
-15 60 0 72 15 78 57 23 15 -20 42 -51 58 -69 l31 -32 142 2 c150 1 161 4 162
50 0 17 -3 16 -25 -8 -18 -20 -34 -26 -64 -26 -66 0 -71 5 -71 71 0 59 0 59
29 59 39 0 61 -9 61 -26 0 -8 3 -14 8 -14 4 0 7 20 7 45 0 25 -3 45 -7 45 -5
0 -8 -6 -8 -14 0 -14 -29 -26 -67 -26 -21 0 -23 4 -23 60 l0 60 49 0 c39 0 52
-4 64 -22 16 -23 16 -23 16 10 l1 32 -100 0 c-91 0 -123 -9 -85 -24 12 -4 15
-28 15 -126 0 -120 0 -121 -26 -130 -35 -14 -55 -1 -103 65 l-39 55 29 29 c47
47 35 101 -25 121 -37 12 -154 12 -161 -1z"/>
<path d="M2520 531 c0 -5 9 -11 20 -14 19 -5 20 -14 20 -131 0 -105 -2 -126
-15 -126 -8 0 -15 -4 -15 -8 0 -5 23 -9 50 -9 28 0 50 3 50 8 0 5 -8 9 -19 9
-14 0 -20 10 -25 38 -8 52 -8 172 2 172 4 0 52 -51 107 -114 55 -63 103 -115
108 -115 4 -1 7 59 7 133 0 127 1 134 23 149 21 15 20 16 -30 16 -29 1 -53 -3
-53 -9 0 -5 7 -10 15 -10 20 0 26 -32 23 -125 l-3 -80 -100 112 c-88 99 -104
112 -132 113 -18 0 -33 -4 -33 -9z"/>
<path d="M3242 520 c-100 -61 -95 -211 8 -262 45 -23 116 -23 160 0 100 53
100 215 0 267 -42 22 -128 19 -168 -5z m151 -17 c28 -25 47 -75 47 -123 0
-155 -180 -173 -220 -22 -18 69 13 143 70 165 25 10 81 -1 103 -20z"/>
</g>
</svg>
